<svg id="Capa_1" data-name="Capa 1" xmlns="http://www.w3.org/2000/svg" viewBox="0 0 1200 800"><defs><style>.cls-1{fill:#010101;}</style></defs><path class="cls-1" d="M1199.9,635.9c-5.1-1.6-10.2-3.1-15.2-4.9-25.1-8.8-51.3-13.8-76.3-22.8-1.8-.7-3.6-.3-5.4-.2-11.4.7-22.1-1-32.1-7.1-17.7-10.9-37.7-10.9-57.1-8.7-38.5,4.3-76.6,12.2-115.6,11.2a16.77,16.77,0,0,0-13.8,5.8,13.7,13.7,0,0,1-8.2,4.5c-8.6,1.5-14.5,5.3-16.5,14.7-1.3,6.2-4.1,7.4-10.6,7.4H819.2a2,2,0,0,1-.8-.1h-.3a5,5,0,0,1-1.3-.4H798.9c-.8.2-1.5.3-2.3.5H737.9a5.21,5.21,0,0,1-2.3-.5H707.8l-.1-.1a1.48,1.48,0,0,1-.7-.1c.2.1.3.2.5.3a4.88,4.88,0,0,0-.7-.3,3,3,0,0,1-1-.4,21.6,21.6,0,0,0-6.2-.4H570.7c-2.2,0-4.3.1-6.5,0-5.6-.2-10.1-2.5-12.3-7.8-2.6-6.5-7.7-9.7-14-11.7-4.3-1.3-8.8-1.8-13.2-2.6-4.1-.8-8.2-1.4-11.8-3.8-4.9-3.3-10.5-4.8-16.3-5.9a85.5,85.5,0,0,0-13.4-1.1c-19-.4-37.9,1-56.9-.9-3.1-.3-5.3-1.4-6.9-4.1-6.4-10.7-14.2-20.5-21.4-30.7-.5-.7-1-1.5-1.5-2.2l.3,2.7c-10.6-15.3-12-31.7-6.4-49.1a6.48,6.48,0,0,1,3.2-4.2v1.8a7,7,0,0,1,1-.8,20.68,20.68,0,0,1,5.3-2.8c2-.9,3.5-2.6,3-4.7-1.3-5.2,1.6-6.3,5.8-6.5a13.79,13.79,0,0,0,2.9-.8c6.9-1.7,10-.5,13.8,5.5,2.3,3.7,5.3,6.1,9.8,5.6a16.44,16.44,0,0,1,9.5,2.1c4.2,2.1,8.6,4.8,13.2,3.5,7.4-2.1,15.1-2.8,22.1-6,5.4-2.5,10.9-2.8,16.6-2.1,13.5,1.5,24.3-4,33.4-13.5a5.56,5.56,0,0,0,1.8-5c-2.7-6.1-8.2-8.3-13.9-10.6-6-2.4-12.1-4.6-16.8-9.6-2.1-2.2-3.1-4.1.9-5.2,3.8-1,3.9-3.5,2.6-6.6-1-2.3-1.8-4.8-3.5-6.6-3.4-3.7-6.6-7.4-6.6-12.9,0-2.3-4.2-4.2-2.1-6.3,1.3-1.4,4.7-.7,7.2-1,.7-.1,1.3-.1,2-.2,2.2-.3,3.1-1.7,3.3-3.8.6-5.6-4-12.7-9.4-14.4-4.9-1.5-10.1-2.1-15-3.8-4.6-.8-9.2-.3-13.9-.4-2.7-.1-5.3-.2-7.6-1.8-1.5-1-2-2-.6-3.6,4.3-5.1,4.4-5.2,0-10-2.9-3.2-3.6-6.4-2.2-10.5.9-2.5,2-5.4-.8-7.7-2.1-6.4-7.7-7-13.1-8-9-1.7-18.2-1.7-26.9-5-3.9-1.5-6.7-3.5-6.1-8.2.3-2.9-1.7-4.1-4-4.9-7.8-2.9-15.5-5.6-24-6.1-9.3-.6-18.5-2.1-27.8-2.7-3.2-.2-6.4-1.6-9.6-2.6-1.4-.5-3.2-1.4-1.9-3.2,1.8-2.5-.4-2.6-1.6-3.3-12.1-7.2-25.6-6.3-38.8-6.4-5.4,0-10.3,2.1-15,4.9a30.86,30.86,0,0,1-14.2,3.9c-10.1.6-20.3-1.1-30.4.5-3.5.5-10.2,6-9.8,9.1.5,4.3,3.6,6.2,7.8,7.1,6.5,1.5,12.9,3.1,19.6,1.6,1.6-.3,4.2-.9,4.2,1.9,0,3.5-.3,7.1-5.1,7.8a56.32,56.32,0,0,1-16.9.1c-9.2-1.4-18.1-3.8-27.6-3.2-6.3.3-10.2,2.4-13.4,7.4-2.8,4.2-2.7,6,1.8,8.1a46.7,46.7,0,0,0,6.6,2.3c7.8,2.3,15.6,4.6,23.4,7a18.16,18.16,0,0,1,7,3.7c2,1.9,2.6,3.3-.9,4.3a42.81,42.81,0,0,1-12.2,2.1c-4.5-.1-8.1,1.5-10.3,5.7-1.8,3.4-4.7,4.9-8.2,5.9a25.43,25.43,0,0,1-11.3.5c-4-.6-11.5,3-11.7,5.2-.3,2.6,7.2,7.2,11.6,7.2,5.2,0,10.3.2,15.5.1,3.4-.1,5,1.2,4.9,4.6-.1,3.8,2.2,5.1,5.5,5.7,6.4,1.2,12.8,2.4,19.3,2.3,5.5-.1,8.8,2.4,11.9,6.6,7.9,10.4,19.5,13.7,31.8,14.8,4.4.4,8.9-1,13.4-1.1,7.6-.1,15.6-1.2,22,4.2,4,3.5,8,6.3,13.2,7.5,1.4.3,3.4.7,3.6,2.3.7,4.5,4,9.6,1.7,13.5s-7.9,2.1-12.1,1.8a21.92,21.92,0,0,1-6.6-2c-1.9-.7-3.6-1.9-5.6-1.9-10.8.1-21.7.1-32.1,3.1-9.1,2.6-17.1,5.6-27.5,1.8-12-4.4-25-2.2-34.8,8.5-2.3,2.5-2.9,3.6.6,5.2a103.19,103.19,0,0,1,12.8,6.6c4.5,2.7,4.3,4.7-.4,6.7-4.2,1.8-8.1,4.1-10.8,7.7-2.9,3.8-6.7,5.7-11.1,7.1a211.35,211.35,0,0,1-31.2,8.4c-7.4,1.3-7.5,1.3-9.7-5.9-.1-.2-.1-.3-.2-.5-1.4-2.6-.2-3.2,2.3-3.9,5.6-1.5,11-3.6,16.6-5.3,2.7-.8,3.7-1.6,2.1-4.7-4-8-9.4-15.3-13.5-23.3-1-2-2.5-1.7-4.2-1.5-6.1.7-12.2,1.6-18.3,2a141.67,141.67,0,0,1-33.8-2c-2.8-.5-4.4.1-5.7,2.9-3.5,7.5-7.4,14.9-11.3,22.2-1.2,2.2-1,3.2,1.5,3.8,4.3,1.2,8.6,2.6,12.9,3.8,8,2.2,7.9,2.1,5.3,10.2-.9,2.8-1.7,3.9-5.1,3.3a169.37,169.37,0,0,1-54-18.4c-4-2.1-7.7-7.5-11.7-6.1-3.8,1.3-5.9,6.9-9.1,10.3-2.5,2.7-2.4,4.1.8,6.3a233.08,233.08,0,0,0,40.9,22.7c3.2,1.3,4.1,3,4,6.2-.2,9.2-.1,18.3-.1,27.5,0,7.3,0,7.5-7.1,7.3-3.5-.1-4.9.9-4.4,4.4.1,1.1-.2,2.3,0,3.5.6,4-1,5.3-4.9,4.9-2.6-.3-5.9-.9-7.8.3-2.3,1.4-.7,4.9-.9,7.5-.1,1.6-.4,2.6-2.2,2.4-1.4-.2-3.6.8-3.5-2.1,0-1.2.3-2.8-1.8-2.8s-1.8,1.5-1.8,2.8c-.1,1-.1,2.1-1.5,2s-1.5-1.1-1.5-2.1c-.1-1.3,0-2.7-1.9-2.8s-2.1,1.2-2.1,2.6,0,2.4-1.8,2.3c-1.3-.1-1.5-.8-1.6-2s.5-2.8-1.7-2.8c-2.5,0-1.7,1.9-2,3.2-1.3,5.1.4,10.2.2,15.3-.1,3.4-1.3,4.6-4.4,5.2-12.4,2.3-24.8,4.8-37.2,7.1q.15,79.95-.1,160c0,3.4.7,4.1,4.1,4.1q595.8-.15,1191.8,0c3.4,0,4.1-.7,4.1-4.1C1199.9,742.6,1199.9,689.2,1199.9,635.9Zm-743-160.8c-.2,1.4-1.2,1.9-2.7,1.7-1.2-.7-3.5-.5-3.2-2.8.2-1.6,1.7-1.9,3.1-1.6S457.2,473.1,456.9,475.1Zm23.9,6.1c.1,1.5-.8,2.6-2.5,2.2-1.5-.4-3.7-.4-3.8-2.5-.1-1.7,1.6-1.8,3-1.8C479.1,479,480.7,479.3,480.8,481.2ZM446,422.8c-.2-2.6,2.3-2.5,4.1-2.4,2.6.1,5.3.8,7.9,1.1,1.8.2,3.9,1,5.4.3,5.9-2.6,11.1-1.8,16.4,2.5-3.5,2.4-7.4,2.7-11.4,2.9-2.8.1-6.1.3-4.4,4.8.4,1.1-.1,2.4-1.1,2.4-4.5.3-9,3-13.5.2C444.4,431.7,446.2,426.9,446,422.8Zm1.1,36.3c1.8-.3,3.7-.3,6.7-.5,5,.9,11.1,2,17.3,3.1a4.84,4.84,0,0,1,1.8.7c2.5,1.9,6.1,4.4,5.1,7.1s-5,.7-7.2-.1a74.52,74.52,0,0,0-23-3.4c-2,0-3.9.2-3.9-2.5C444.1,461.5,444.7,459.5,447.1,459.1Zm-9.8-71.8c2.2-1.8,4.6-1.3,5,2.3.9,1.9,2,3.9.1,5.7a2.91,2.91,0,0,1-4.2.3c-.2-.1-.3-.3-.5-.5-2.1-1.9-7,.8-7.2-3.2C430.4,388.7,435,389.1,437.3,387.3Zm-6.9,31.5c1.8.1,3.5.3,3.3,2.4a1.84,1.84,0,0,1-2,1.8.75.75,0,0,1-.5-.1c-1.4-.3-3.2-.5-3.3-2.3C427.7,418.6,429.5,419,430.4,418.8Zm-7.5,8.1c1.2,2.4,3.2,3.6,6.2,4.8a29.13,29.13,0,0,1-15.3,3.4l4.4-10.1C420.5,423.6,421.9,425,422.9,426.9ZM414.4,387c1.7.1,3.5.2,3.5,2.5,0,1.4-1,2-2.4,1.9-1.5-.5-3.6-.4-3.9-2.4C411.5,387.3,413,386.9,414.4,387Zm-4.6,94.2c1.7.2,3.2.5,3.3,2.4.1,1.6-.8,2.6-2.4,2.2s-3.5-.5-3.6-2.6C407.1,481.5,408.7,481.3,409.8,481.2ZM223.2,417.4c-1.2-.5-2.7-.5-3.3-1.8-.1-.3.5-1.2,1-1.4a3.51,3.51,0,0,1,4.4.6,22,22,0,0,0,3.2,2.1C225.9,418.7,224.5,418,223.2,417.4ZM46.7,626.6c-3.5-.1-.2-4.5-2-6.4,1.6-2.1-1.6-6.2,2.3-6.1,3.6.1,1.6,4,1.6,6.1S50.6,626.8,46.7,626.6Zm9.1-9.4c.1,1.7,0,3.3,0,5s.1,3.3-2,3.3c-2.4,0-1.3-2.2-1.5-3.4a10.48,10.48,0,0,1,.1-2.5v-2.5c.1-1.3-.7-3.3,1.8-3.3S55.7,615.9,55.8,617.2Zm9.1,1.5c.3,2.7.5,5.5-3.6,5.3-4.3-.3-.9-3.7-2.2-4.9.5-2.3-1.4-5.5,3.2-5.3C66.6,613.9,64.7,616.9,64.9,618.7Zm333-135.9c-4,1.2-8,1.4-11.2,5.5-3.5,4.5-15,1.2-16.7-6.8a59.64,59.64,0,0,1-.8-9.4c-.2-6.7,6-10.8,12.4-8.7,3.6,1.2,6.9,3.1,10.6,4s5.7,4.3,7.5,7.5C403,481,402.9,481.1,397.9,482.8ZM358.5,350.9c1.3-.1,2.7.1,2.9,2.5-.1,1-1.4,1.4-2.7,1.5-1.7.1-3.2-.8-3.2-2.3C355.5,351.7,357.2,350.9,358.5,350.9Zm-20.2-5.6c2.4.9,2.5,4,4.5,5.5a4.45,4.45,0,0,1-2.1,1.2,6.52,6.52,0,0,1-4.5-4.6C335.7,345.8,337.6,345.1,338.3,345.3Zm-6.4,34.8a1.37,1.37,0,0,1,.8-.5c7.6,1.1,8.4-4.8,9.8-9.7,1-3.5,3.9-3.3,6.3-3.7,3.1-.5,4,3,6.3,4.2a1,1,0,0,1,.1.9c-4.1,3.3-1.6,7.4-1.6,11.3,0,2.5.7,3.1,2.6,3.8,5.9,2,12.7.1,15.2-3.5,3.3-4.8,5-10.3,11.4-12.2.6-.2.2-3.1.5-4.7.2-1.4.6-3.5,2.2-3.5a3.55,3.55,0,0,1,3.5,3c.5,3.5,2,5.8,5.6,6.6a2.17,2.17,0,0,1,2,2.4c-.2,1.1-.5,2.3-1.9,2.7a13.65,13.65,0,0,1-2.9.7c-1.7.2-3.1.8-3,2.6.1,2,2,1.2,3.2,1.4,3.4.5,7.5-.2,8.9,4.6-3.7.8-8.3.3-6.9,6.4.4,1.4-1.5,1.5-2.6,1.5-3.6-.2-7.3-.5-10.9-1-4-.5-7.8-.9-11.8.3s-8.5.9-11.6-1.4c-8.2-5.8-17-3.5-25.5-2.8-5,.4-9.9.3-15.2.5.7-4.4,2.9-5.7,6.5-6C326.1,383.7,329.9,383.9,331.9,380.1ZM352,416.8c-.9,1.8-2.5,3.8-4.8,4s-4-1-3.8-3.8a2.24,2.24,0,0,0-1.3-1.4c-6.3-.8-7.2-8.6-13-10.2a60.46,60.46,0,0,1,18.9-2.7c3.9.1,5.4.6,6.5,5.6C355.5,412.8,353.2,414.3,352,416.8Zm.6,71.9c0,1.9-1.9,1.1-3,1.5-1.5,0-3.4,0-3.4-1.9.1-1.6,2-2.2,3.3-2.2S352.6,487,352.6,488.7ZM316,358.5c3.7-.2,6.3-2.6,8.7-3.6,1.9.4,4.2.5,3.8,1-2.6,3.1.5,7.6-2.7,10.4-1.8,1.6-11.8-.3-12.3-2.5C313.2,361.7,315.1,358.5,316,358.5Zm-22.4,3.6c1.5-2.5,2.8-3.8,4.7-.2.7,1.3,2.4,1.5,3.9.4,1.8-1.3,4.7-2.7,5.9-1.2,1.8,2.4-2.2,3-2.9,4.6-2.3,5-5.8,5.1-10,3.3a30,30,0,0,1-4.7-3.2C291.5,364.7,292.6,363.4,293.6,362.1Zm-2.9,14.4c4.8,2.8,10.7,3.4,14.7,7.8,1.1,1.1,3.4,1.8,2.5,3.8s-2.5,0-3.8.2c-3.2.5-6,.3-8.3-2.6-1.1-1.4-3.5-.1-5.6-.1-1.7-.6-4.6,1.9-5.6-2.2-.4-1.6-3-.5-4.6-.8-1.4-.3-2.7-.8-2.7-2.4s1.1-2.3,2.7-2.1a5.9,5.9,0,0,0,4.4-1.6C286.3,375,288.1,375,290.7,376.5Zm-12.5-13.4c1.3-.1,2.9.5,2.8,2.1s-1.7,1.8-2.7,2.1c-1.7-.2-3.2-.8-3.1-2.1S276.9,363.1,278.2,363.1Zm-11.3,16.4a1.73,1.73,0,0,1,.2,2.4,1.79,1.79,0,0,1-.7.5c-3,1.9-4.9.7-6.6-1.8C262.2,378.7,264.4,377.1,266.9,379.5Zm6.1,39.9c-.6,1.5-2.3.5-3.6.7-6.8,1-13.6,2.6-20.6,1.9-3.6-.3-6.3-1.4-8.3-5,2.8-.5,5.3-.7,7.7-1.3,3.4-.9,7-1.4,8-6,.5-2.5,7.1-4.1,9.7-3a7.46,7.46,0,0,1,1.2.7c-3,5.2,3,5.7,4.5,8.5C272.1,417.1,273.5,418.1,273,419.4Zm17.8,21.3a2.44,2.44,0,0,1-3.5.5c-2-1.1-5.3-.6-5.9-3.4-.3-1.4,2-1.7,3.5-2,2.9,0,4,2.5,5.8,4A1.41,1.41,0,0,1,290.8,440.7Zm46.1,10.1c-4.5-4.3-9.9-5.6-15.8-6.1-1.8-.1-6.1,1.4-4.2-3.7.4-1.1-1.2-1.4-2.1-1.7a9.37,9.37,0,0,1-4.7-2.5c2.7-2.4,5.3-3.3,8.8-2.3,2.1.6,4.6,0,6.9-.2,3-.2,3.3-2.3,1.9-4.2-3-4.1-6.7-7.5-12.3-6.5a26.61,26.61,0,0,1-15.5-2.2c-3.4-1.5-7.4-1.8-11.2-2.2a30.1,30.1,0,0,1-11.3-3.7c-1.8-1-4.5-1.3-3.5-4.8.9-3.2,2.8-4.5,5.6-4.6a84.14,84.14,0,0,1,10,.3c5.8.5,11.4,1.4,16.4-3.3,3-2.8,13.4,1,14.1,5.3,1.4,7.6,7.3,10.8,12.6,14.5,4.4,3.1,8.5,5.7,6.8,12.2-.7,2.8,1.3,5.3,2.8,7.8,1.2,2,2.3,4.1.8,6.5C341.4,452.1,339.3,453.1,336.9,450.8Zm-15.8,47.6a17.19,17.19,0,0,0,12.1-5c1.4-1.3,2.9-3.4,5.5-1.5,2.9,2.2,1.5,5,0,6.3-5.3,4.4-9.8,11.3-18.3,9.2-4.6-1.1-9.2-2.8-12-8.4C313.2,498.7,317.2,498.4,321.1,498.4Zm-25.5.1c2.4.7,5.6.8,6.3,3.8.6,2.2-1.6,1.4-2.8,1.7-2.4-.6-5.4-.7-6-4C292.8,498.4,294.8,498.3,295.6,498.5Zm-37.2-6.7c1.9-.2,3.3-.1,3.1,2.1-.2,2.6-2.2,2.5-4,2.5s-3.4-.6-3.3-2.7C254.2,490.1,257.3,492.9,258.4,491.8ZM128.7,584.1c0,2-.4,3.1-2.7,3-6.8-.1-13.7-.2-20.5,0-2.7.1-2.9-1.2-2.9-3.4.1-4.6,0-9.3,0-14s.1-9.3,0-14c0-2.3.2-3.5,3-2.5a142.61,142.61,0,0,0,20.2,5.2c1.9.4,2.9.9,2.9,3.1C128.5,569.1,128.6,576.7,128.7,584.1Zm32.6-.2c0,2.2-.3,3.3-2.9,3.2q-10.2-.3-20.4,0c-2.6.1-3-1-2.9-3.2.1-3.5,0-7,0-10.5h.4V560.5c4.2.2,8.5.4,12.7.5a82.21,82.21,0,0,0,9.9.2c2.9-.3,3.2.9,3.2,3.3C161.2,571,161.2,577.5,161.3,583.9Zm29.3,3.3q-9.75-.15-19.5,0c-2.6.1-3.5-.6-3.4-3.3.2-6.7.2-13.3,0-20-.1-2.8,1.2-3.4,3.4-3.6a148.66,148.66,0,0,0,22.7-4.4c.1,9.7,0,19,.1,28.3C193.9,586.8,192.8,587.2,190.6,587.2Zm112.9,5.1c-13.4-1.7-26.9-.1-40.4-.3a151.33,151.33,0,0,0-44.9,6.3c-.1-1-.3-1.7-.3-2.3-.3-8.3-.3-8.5-8.3-8.8-2.5-.1-3.1-.9-3-3.2.1-9.8.1-19.7,0-29.5,0-2.1.5-3.3,2.6-4.2a158.57,158.57,0,0,0,36.2-20.7c.6-.5,1.5-1.2,2.2-1.1,6.8.5,11.8-3.7,17.5-6.3,3.8-1.8,7.6-3.3,9.8-7.2a6.62,6.62,0,0,1,4.6-2.8c8.4-1.6,16.7-2.7,24.9,1.2,8.6,4.1,17.2,5.3,26.2.5,5.6-3,12.2-3.1,18.5-3.5,7.2-.5,12.7,6.3,11.4,13.4a42.6,42.6,0,0,0,4,26.7c6.9,13.9,16.1,26.3,24.1,39.5,1.8,3.1,3.6,6.2,6,10.4C363.6,596.1,333.4,596.1,303.5,592.3Z"/><rect class="cls-1" x="1195.96" y="635.9" width="12.07" height="164.4"/><rect class="cls-1" x="-3.52" y="636.2" width="9.76" height="163.8"/></svg>