<svg id="Capa_1" data-name="Capa 1" xmlns="http://www.w3.org/2000/svg" xmlns:xlink="http://www.w3.org/1999/xlink" viewBox="0 0 1200 800"><defs><style>.cls-1{fill:url(#Degradado_sin_nombre);}.cls-2{stroke:#000;stroke-miterlimit:10;}</style><linearGradient id="Degradado_sin_nombre" x1="610.7" y1="741.99" x2="610.7" y2="1174.59" gradientTransform="translate(0 -434.49)" gradientUnits="userSpaceOnUse"><stop offset="0" stop-color="#d71a22"/><stop offset="1" stop-color="#ad161b"/></linearGradient></defs><ellipse class="cls-1" cx="610.7" cy="523.8" rx="216.9" ry="216.3"/><path class="cls-2" d="M738.3,626.8c-1-4.7,0-5.4,4.9-4.7l6.4.9c3,.4,3.8-.9,3.2-3.8-1.1-5.8-2.2-11.5-1.8-18.8,4.8,8.2,9,15.2,13.3,22.3,7.8,13,7.8,12.8,22.5,9.4,4-.9,7.8-2.8,12.1-2.2h0a9,9,0,0,1,1-.9c5.4-1.5,10.8-3,15.6-6.2-1.4,4.5-4.1,8.6-8.1,10a55.83,55.83,0,0,1-9.1,2.6h21.5c3.4-3.1,7.1-3.3,10.2-4.8,3.9-1.8,4.7-4.5,2.4-8-4.3-6.7-4.3-6.7,2.4-10.5a88.5,88.5,0,0,1-20.5-16c-1.4-3.4-4.3-5.4-6.9-7.7-11.6-10.5-23.6-20.5-28.9-36.1-1.2-3.5-3.9-6.3-5.1-10.3,6.2,1.4,11.3,4,16.3,6.6,5.8,3,11.8,5.4,17.7,8.1,2.1,1,5.3,2.5,6.6-.5,1.2-2.8-2.1-3.6-4.1-4.7-2.6-1.5-5.6-2.2-8.2-3.8-6.7-3.3-13.3-7.2-20.4-9.3-9.4-2.8-14.1-8.3-14.9-17.8-.2-2.3-1.8-4.7-.4-6.8,2.6-4,1.4-8,.7-12.1-.9-5.6-2.5-11.1,0-16.7,1.8-9.4-1.2-16.1-9-20.7-7.1-4.1-7.3-4.7-5.8-12.7.4-2.4.9-3.8,3.9-4,3.8-.2,5-2.6,4.1-7.2-.7-4-3.3-6.6-6.3-5.3-4.5,2-7.8.3-11.7-1.5-5.9-2.6-11.4-.9-16.3,3.1-4.5,3.7-6.1,8.1-3.8,13.8a20.07,20.07,0,0,1,.8,4.9c1.2,6.9,4.9,10.6,11.4,11,1.9.1,2.3,1,2.2,2.5-.1,2-1.4,3.3-2.6,4.7-5.6,6.3-11.8,11.6-20.2,14-5.6,1.6-11,3.9-16.5,5.9a11.06,11.06,0,0,0-5.3,3.4c-3.5,4.3-12.3,5.2-16.7,1.7-6.4-5.1-12.3-10.8-18.2-16.4-13-12.4-24.8-26-36.6-39.6-1.1-1.3-2.2-3.7-4.2-2.6s-1.5,3.6-1,5.5c.8,3.3,3.1,5.8,5,8.5,8.8,12.5,20.6,22.2,31,33.2,6.4,6.1,13,11.9,19.8,17.6,2.6,2.2,3.8,6,7,7,7.1,2.2,13.1,7.1,20.6,8.3,2,.3,4.1,1.3,5.6-.6s.3-3.7-.6-5.5c1.4,1.8,2.2,3.8,3.5,5.5,3.5,4.7,5.8,5,10.2,1.1,2.4-2.1,4.5-4.4,6.8-6.7,1.9-1.9,3.4-1.8,4.5.8a25.72,25.72,0,0,1,1.5,4.7c.7,2.7-.2,3.8-3,3.4-1.6-.2-3.8-.5-4.3,1.5-.6,2.5,2,2.6,3.6,3.3.7.4,1.6.5,2.3.9,3.2,1.5,4.2,4.3,2.8,7.4a17.65,17.65,0,0,1-4,5c-6.5,6.2-12,13.4-18.5,19.5-1.5,3.1-1.5,6.5-1.3,9.8.7,12-.3,23.6-6.1,34.4a7.84,7.84,0,0,0-.5,1.4c-2,6.5-.7,8.9,5.9,10.4,4.4,1,8.8,1.7,13.2,2.7,1,.2,2.6,0,2.8,1.6.1,1.1-1,1.6-1.9,2.1-3.5,2-7,3.9-11.2,3.9-2.6,0-5.2,0-6.1,3.1s1.7,4.2,3.8,5.5H738A15.35,15.35,0,0,0,738.3,626.8ZM692.9,507a16,16,0,0,1,9.2-1.9C698.4,507.8,696.4,508.7,692.9,507Z"/></svg>