<?xml version="1.0" encoding="utf-8"?>
<!-- Generator: Adobe Illustrator 25.0.0, SVG Export Plug-In . SVG Version: 6.00 Build 0)  -->
<svg version="1.1" id="Capa_1" xmlns="http://www.w3.org/2000/svg" xmlns:xlink="http://www.w3.org/1999/xlink" x="0px" y="0px"
	 viewBox="0 0 1200 800" style="enable-background:new 0 0 1200 800;" xml:space="preserve">
<style type="text/css">
	.st0{fill:url(#SVGID_1_);}
	.st1{stroke:#000000;stroke-miterlimit:10;}
	.st2{fill:#010101;}
</style>
<linearGradient id="SVGID_1_" gradientUnits="userSpaceOnUse" x1="610.7" y1="741.994" x2="610.7" y2="1174.594" gradientTransform="matrix(1 0 0 1 0 -434.494)">
	<stop  offset="0" style="stop-color:#D71A22"/>
	<stop  offset="1" style="stop-color:#AD161B"/>
</linearGradient>
<ellipse class="st0" cx="610.7" cy="523.8" rx="216.9" ry="216.3"/>
<g>
	<path class="st1" d="M738.3,626.8c-1-4.7,0-5.4,4.9-4.7l6.4,0.9c3,0.4,3.8-0.9,3.2-3.8c-1.1-5.8-2.2-11.5-1.8-18.8
		c4.8,8.2,9,15.2,13.3,22.3c7.8,13,7.8,12.8,22.5,9.4c4-0.9,7.8-2.8,12.1-2.2l0,0c0.3-0.3,0.6-0.6,1-0.9c5.4-1.5,10.8-3,15.6-6.2
		c-1.4,4.5-4.1,8.6-8.1,10c-2.9,1.1-6,2-9.1,2.6h21.5c3.4-3.1,7.1-3.3,10.2-4.8c3.9-1.8,4.7-4.5,2.4-8c-4.3-6.7-4.3-6.7,2.4-10.5
		c-7.6-4.3-14.5-9.7-20.5-16c-1.4-3.4-4.3-5.4-6.9-7.7c-11.6-10.5-23.6-20.5-28.9-36.1c-1.2-3.5-3.9-6.3-5.1-10.3
		c6.2,1.4,11.3,4,16.3,6.6c5.8,3,11.8,5.4,17.7,8.1c2.1,1,5.3,2.5,6.6-0.5c1.2-2.8-2.1-3.6-4.1-4.7c-2.6-1.5-5.6-2.2-8.2-3.8
		c-6.7-3.3-13.3-7.2-20.4-9.3c-9.4-2.8-14.1-8.3-14.9-17.8c-0.2-2.3-1.8-4.7-0.4-6.8c2.6-4,1.4-8,0.7-12.1c-0.9-5.6-2.5-11.1,0-16.7
		c1.8-9.4-1.2-16.1-9-20.7c-7.1-4.1-7.3-4.7-5.8-12.7c0.4-2.4,0.9-3.8,3.9-4c3.8-0.2,5-2.6,4.1-7.2c-0.7-4-3.3-6.6-6.3-5.3
		c-4.5,2-7.8,0.3-11.7-1.5c-5.9-2.6-11.4-0.9-16.3,3.1c-4.5,3.7-6.1,8.1-3.8,13.8c0.6,1.5,0.6,3.3,0.8,4.9c1.2,6.9,4.9,10.6,11.4,11
		c1.9,0.1,2.3,1,2.2,2.5c-0.1,2-1.4,3.3-2.6,4.7c-5.6,6.3-11.8,11.6-20.2,14c-5.6,1.6-11,3.9-16.5,5.9c-2.1,0.6-3.9,1.8-5.3,3.4
		c-3.5,4.3-12.3,5.2-16.7,1.7c-6.4-5.1-12.3-10.8-18.2-16.4c-13-12.4-24.8-26-36.6-39.6c-1.1-1.3-2.2-3.7-4.2-2.6s-1.5,3.6-1,5.5
		c0.8,3.3,3.1,5.8,5,8.5c8.8,12.5,20.6,22.2,31,33.2c6.4,6.1,13,11.9,19.8,17.6c2.6,2.2,3.8,6,7,7c7.1,2.2,13.1,7.1,20.6,8.3
		c2,0.3,4.1,1.3,5.6-0.6s0.3-3.7-0.6-5.5c1.4,1.8,2.2,3.8,3.5,5.5c3.5,4.7,5.8,5,10.2,1.1c2.4-2.1,4.5-4.4,6.8-6.7
		c1.9-1.9,3.4-1.8,4.5,0.8c0.6,1.5,1.2,3.1,1.5,4.7c0.7,2.7-0.2,3.8-3,3.4c-1.6-0.2-3.8-0.5-4.3,1.5c-0.6,2.5,2,2.6,3.6,3.3
		c0.7,0.4,1.6,0.5,2.3,0.9c3.2,1.5,4.2,4.3,2.8,7.4c-1,1.9-2.4,3.6-4,5c-6.5,6.2-12,13.4-18.5,19.5c-1.5,3.1-1.5,6.5-1.3,9.8
		c0.7,12-0.3,23.6-6.1,34.4c-0.2,0.5-0.4,0.9-0.5,1.4c-2,6.5-0.7,8.9,5.9,10.4c4.4,1,8.8,1.7,13.2,2.7c1,0.2,2.6,0,2.8,1.6
		c0.1,1.1-1,1.6-1.9,2.1c-3.5,2-7,3.9-11.2,3.9c-2.6,0-5.2,0-6.1,3.1s1.7,4.2,3.8,5.5H738C738.9,632.6,739,629.6,738.3,626.8z
		 M692.9,507c2.7-1.5,5.9-2.2,9.2-1.9C698.4,507.8,696.4,508.7,692.9,507z"/>
</g>
<g>
	<path class="st2" d="M1199.9,635.9c-5.1-1.6-10.2-3.1-15.2-4.9c-25.1-8.8-51.3-13.8-76.3-22.8c-1.8-0.7-3.6-0.3-5.4-0.2
		c-11.4,0.7-22.1-1-32.1-7.1c-17.7-10.9-37.7-10.9-57.1-8.7c-38.5,4.3-76.6,12.2-115.6,11.2c-5.3-0.3-10.4,1.8-13.8,5.8
		c-2.1,2.4-5,4-8.2,4.5c-8.6,1.5-14.5,5.3-16.5,14.7c-1.3,6.2-4.1,7.4-10.6,7.4h-29.4c-0.2,0-0.3,0-0.5,0c-0.3,0-0.6,0-0.8-0.1
		c-0.1,0-0.2,0-0.3,0c0,0,0,0,0,0c-0.5-0.1-0.9-0.2-1.3-0.4h-17.9c-0.8,0.2-1.5,0.3-2.3,0.5h-58.2c-0.2,0-0.3,0-0.5,0
		c-0.9,0-1.7-0.2-2.3-0.5h-27.8c0,0-0.1-0.1-0.1-0.1c-0.3,0-0.5,0-0.7-0.1c0.2,0.1,0.3,0.2,0.5,0.3c-0.2-0.1-0.4-0.2-0.7-0.3
		c-0.4-0.1-0.7-0.2-1-0.4c-2-0.6-4.2-0.4-6.2-0.4H570.7c-2.2,0-4.3,0.1-6.5,0c-5.6-0.2-10.1-2.5-12.3-7.8c-2.6-6.5-7.7-9.7-14-11.7
		c-4.3-1.3-8.8-1.8-13.2-2.6c-4.1-0.8-8.2-1.4-11.8-3.8c-4.9-3.3-10.5-4.8-16.3-5.9c-4.4-0.7-8.9-1.1-13.4-1.1
		c-19-0.4-37.9,1-56.9-0.9c-3.1-0.3-5.3-1.4-6.9-4.1c-6.4-10.7-14.2-20.5-21.4-30.7c-0.5-0.7-1-1.5-1.5-2.2l0.3,2.7
		c-10.6-15.3-12-31.7-6.4-49.1c0.4-1.8,1.6-3.3,3.2-4.2v1.8c0.3-0.3,0.7-0.6,1-0.8c1.5-1.3,3.5-2,5.3-2.8c2-0.9,3.5-2.6,3-4.7
		c-1.3-5.2,1.6-6.3,5.8-6.5c1-0.2,2-0.4,2.9-0.8c6.9-1.7,10-0.5,13.8,5.5c2.3,3.7,5.3,6.1,9.8,5.6c3.5-0.4,6.5,0.6,9.5,2.1
		c4.2,2.1,8.6,4.8,13.2,3.5c7.4-2.1,15.1-2.8,22.1-6c5.4-2.5,10.9-2.8,16.6-2.1c13.5,1.5,24.3-4,33.4-13.5c1.4-1.3,2.1-3.1,1.8-5
		c-2.7-6.1-8.2-8.3-13.9-10.6c-6-2.4-12.1-4.6-16.8-9.6c-2.1-2.2-3.1-4.1,0.9-5.2c3.8-1,3.9-3.5,2.6-6.6c-1-2.3-1.8-4.8-3.5-6.6
		c-3.4-3.7-6.6-7.4-6.6-12.9c0-2.3-4.2-4.2-2.1-6.3c1.3-1.4,4.7-0.7,7.2-1c0.7-0.1,1.3-0.1,2-0.2c2.2-0.3,3.1-1.7,3.3-3.8
		c0.6-5.6-4-12.7-9.4-14.4c-4.9-1.5-10.1-2.1-15-3.8c-4.6-0.8-9.2-0.3-13.9-0.4c-2.7-0.1-5.3-0.2-7.6-1.8c-1.5-1-2-2-0.6-3.6
		c4.3-5.1,4.4-5.2,0-10c-2.9-3.2-3.6-6.4-2.2-10.5c0.9-2.5,2-5.4-0.8-7.7c-2.1-6.4-7.7-7-13.1-8c-9-1.7-18.2-1.7-26.9-5
		c-3.9-1.5-6.7-3.5-6.1-8.2c0.3-2.9-1.7-4.1-4-4.9c-7.8-2.9-15.5-5.6-24-6.1c-9.3-0.6-18.5-2.1-27.8-2.7c-3.2-0.2-6.4-1.6-9.6-2.6
		c-1.4-0.5-3.2-1.4-1.9-3.2c1.8-2.5-0.4-2.6-1.6-3.3c-12.1-7.2-25.6-6.3-38.8-6.4c-5.4,0-10.3,2.1-15,4.9c-4.4,2.4-9.2,3.8-14.2,3.9
		c-10.1,0.6-20.3-1.1-30.4,0.5c-3.5,0.5-10.2,6-9.8,9.1c0.5,4.3,3.6,6.2,7.8,7.1c6.5,1.5,12.9,3.1,19.6,1.6c1.6-0.3,4.2-0.9,4.2,1.9
		c0,3.5-0.3,7.1-5.1,7.8c-5.6,0.9-11.3,0.9-16.9,0.1c-9.2-1.4-18.1-3.8-27.6-3.2c-6.3,0.3-10.2,2.4-13.4,7.4c-2.8,4.2-2.7,6,1.8,8.1
		c2.1,0.9,4.3,1.7,6.6,2.3c7.8,2.3,15.6,4.6,23.4,7c2.6,0.7,5,2,7,3.7c2,1.9,2.6,3.3-0.9,4.3c-4,1.3-8.1,2-12.2,2.1
		c-4.5-0.1-8.1,1.5-10.3,5.7c-1.8,3.4-4.7,4.9-8.2,5.9c-3.7,1-7.6,1.2-11.3,0.5c-4-0.6-11.5,3-11.7,5.2c-0.3,2.6,7.2,7.2,11.6,7.2
		c5.2,0,10.3,0.2,15.5,0.1c3.4-0.1,5,1.2,4.9,4.6c-0.1,3.8,2.2,5.1,5.5,5.7c6.4,1.2,12.8,2.4,19.3,2.3c5.5-0.1,8.8,2.4,11.9,6.6
		c7.9,10.4,19.5,13.7,31.8,14.8c4.4,0.4,8.9-1,13.4-1.1c7.6-0.1,15.6-1.2,22,4.2c4,3.5,8,6.3,13.2,7.5c1.4,0.3,3.4,0.7,3.6,2.3
		c0.7,4.5,4,9.6,1.7,13.5c-2.3,3.9-7.9,2.1-12.1,1.8c-2.3-0.3-4.5-1-6.6-2c-1.9-0.7-3.6-1.9-5.6-1.9c-10.8,0.1-21.7,0.1-32.1,3.1
		c-9.1,2.6-17.1,5.6-27.5,1.8c-12-4.4-25-2.2-34.8,8.5c-2.3,2.5-2.9,3.6,0.6,5.2c4.4,1.9,8.7,4.1,12.8,6.6c4.5,2.7,4.3,4.7-0.4,6.7
		c-4.2,1.8-8.1,4.1-10.8,7.7c-2.9,3.8-6.7,5.7-11.1,7.1c-10.2,3.6-20.6,6.4-31.2,8.4c-7.4,1.3-7.5,1.3-9.7-5.9
		c-0.1-0.2-0.1-0.3-0.2-0.5c-1.4-2.6-0.2-3.2,2.3-3.9c5.6-1.5,11-3.6,16.6-5.3c2.7-0.8,3.7-1.6,2.1-4.7c-4-8-9.4-15.3-13.5-23.3
		c-1-2-2.5-1.7-4.2-1.5c-6.1,0.7-12.2,1.6-18.3,2c-11.3,0.7-22.7,0-33.8-2c-2.8-0.5-4.4,0.1-5.7,2.9c-3.5,7.5-7.4,14.9-11.3,22.2
		c-1.2,2.2-1,3.2,1.5,3.8c4.3,1.2,8.6,2.6,12.9,3.8c8,2.2,7.9,2.1,5.3,10.2c-0.9,2.8-1.7,3.9-5.1,3.3c-18.9-3-37.2-9.3-54-18.4
		c-4-2.1-7.7-7.5-11.7-6.1c-3.8,1.3-5.9,6.9-9.1,10.3c-2.5,2.7-2.4,4.1,0.8,6.3c12.8,8.9,26.5,16.5,40.9,22.7c3.2,1.3,4.1,3,4,6.2
		c-0.2,9.2-0.1,18.3-0.1,27.5c0,7.3,0,7.5-7.1,7.3c-3.5-0.1-4.9,0.9-4.4,4.4c0.1,1.1-0.2,2.3,0,3.5c0.6,4-1,5.3-4.9,4.9
		c-2.6-0.3-5.9-0.9-7.8,0.3c-2.3,1.4-0.7,4.9-0.9,7.5c-0.1,1.6-0.4,2.6-2.2,2.4c-1.4-0.2-3.6,0.8-3.5-2.1c0-1.2,0.3-2.8-1.8-2.8
		c-2.1,0-1.8,1.5-1.8,2.8c-0.1,1-0.1,2.1-1.5,2c-1.5-0.1-1.5-1.1-1.5-2.1c-0.1-1.3,0-2.7-1.9-2.8c-2,0-2.1,1.2-2.1,2.6
		c0,1.3,0,2.4-1.8,2.3c-1.3-0.1-1.5-0.8-1.6-2c-0.1-1.2,0.5-2.8-1.7-2.8c-2.5,0-1.7,1.9-2,3.2c-1.3,5.1,0.4,10.2,0.2,15.3
		c-0.1,3.4-1.3,4.6-4.4,5.2c-12.4,2.3-24.8,4.8-37.2,7.1c0.1,53.3,0,106.7-0.1,160c0,3.4,0.7,4.1,4.1,4.1
		c397.2-0.1,794.5-0.1,1191.8,0c3.4,0,4.1-0.7,4.1-4.1C1199.9,742.6,1199.9,689.2,1199.9,635.9z M456.9,475.1
		c-0.2,1.4-1.2,1.9-2.7,1.7c-1.2-0.7-3.5-0.5-3.2-2.8c0.2-1.6,1.7-1.9,3.1-1.6C455.5,472.7,457.2,473.1,456.9,475.1z M480.8,481.2
		c0.1,1.5-0.8,2.6-2.5,2.2c-1.5-0.4-3.7-0.4-3.8-2.5c-0.1-1.7,1.6-1.8,3-1.8C479.1,479,480.7,479.3,480.8,481.2z M446,422.8
		c-0.2-2.6,2.3-2.5,4.1-2.4c2.6,0.1,5.3,0.8,7.9,1.1c1.8,0.2,3.9,1,5.4,0.3c5.9-2.6,11.1-1.8,16.4,2.5c-3.5,2.4-7.4,2.7-11.4,2.9
		c-2.8,0.1-6.1,0.3-4.4,4.8c0.4,1.1-0.1,2.4-1.1,2.4c-4.5,0.3-9,3-13.5,0.2C444.4,431.7,446.2,426.9,446,422.8z M447.1,459.1
		c1.8-0.3,3.7-0.3,6.7-0.5c5,0.9,11.1,2,17.3,3.1c0.7,0.1,1.3,0.4,1.8,0.7c2.5,1.9,6.1,4.4,5.1,7.1c-0.9,2.6-5,0.7-7.2-0.1
		c-7.4-2.3-15.2-3.5-23-3.4c-2,0-3.9,0.2-3.9-2.5C444.1,461.5,444.7,459.5,447.1,459.1z M437.3,387.3c2.2-1.8,4.6-1.3,5,2.3
		c0.9,1.9,2,3.9,0.1,5.7c-1.1,1.3-3,1.4-4.2,0.3c-0.2-0.1-0.3-0.3-0.5-0.5c-2.1-1.9-7,0.8-7.2-3.2
		C430.4,388.7,435,389.1,437.3,387.3z M430.4,418.8c1.8,0.1,3.5,0.3,3.3,2.4c0,1-0.9,1.9-2,1.8c-0.2,0-0.4,0-0.5-0.1
		c-1.4-0.3-3.2-0.5-3.3-2.3C427.7,418.6,429.5,419,430.4,418.8z M422.9,426.9c1.2,2.4,3.2,3.6,6.2,4.8c-4.7,2.5-10,3.7-15.3,3.4
		l4.4-10.1C420.5,423.6,421.9,425,422.9,426.9z M414.4,387c1.7,0.1,3.5,0.2,3.5,2.5c0,1.4-1,2-2.4,1.9c-1.5-0.5-3.6-0.4-3.9-2.4
		C411.5,387.3,413,386.9,414.4,387z M409.8,481.2c1.7,0.2,3.2,0.5,3.3,2.4c0.1,1.6-0.8,2.6-2.4,2.2c-1.6-0.4-3.5-0.5-3.6-2.6
		C407.1,481.5,408.7,481.3,409.8,481.2z M223.2,417.4c-1.2-0.5-2.7-0.5-3.3-1.8c-0.1-0.3,0.5-1.2,1-1.4c1.5-0.7,3.1-0.8,4.4,0.6
		c1,0.8,2.1,1.5,3.2,2.1C225.9,418.7,224.5,418,223.2,417.4z M46.7,626.6c-3.5-0.1-0.2-4.5-2-6.4c1.6-2.1-1.6-6.2,2.3-6.1
		c3.6,0.1,1.6,4,1.6,6.1C48.6,622.4,50.6,626.8,46.7,626.6z M55.8,617.2c0.1,1.7,0,3.3,0,5s0.1,3.3-2,3.3c-2.4,0-1.3-2.2-1.5-3.4
		c-0.1-0.8,0-1.7,0.1-2.5v-2.5c0.1-1.3-0.7-3.3,1.8-3.3S55.7,615.9,55.8,617.2z M64.9,618.7c0.3,2.7,0.5,5.5-3.6,5.3
		c-4.3-0.3-0.9-3.7-2.2-4.9c0.5-2.3-1.4-5.5,3.2-5.3C66.6,613.9,64.7,616.9,64.9,618.7z M397.9,482.8c-4,1.2-8,1.4-11.2,5.5
		c-3.5,4.5-15,1.2-16.7-6.8c-0.5-3.1-0.8-6.3-0.8-9.4c-0.2-6.7,6-10.8,12.4-8.7c3.6,1.2,6.9,3.1,10.6,4c3.8,0.8,5.7,4.3,7.5,7.5
		C403,481,402.9,481.1,397.9,482.8z M358.5,350.9c1.3-0.1,2.7,0.1,2.9,2.5c-0.1,1-1.4,1.4-2.7,1.5c-1.7,0.1-3.2-0.8-3.2-2.3
		C355.5,351.7,357.2,350.9,358.5,350.9z M338.3,345.3c2.4,0.9,2.5,4,4.5,5.5c-0.6,0.6-1.3,1-2.1,1.2c-2.2-0.6-3.9-2.4-4.5-4.6
		C335.7,345.8,337.6,345.1,338.3,345.3z M331.9,380.1c0.2-0.3,0.5-0.4,0.8-0.5c7.6,1.1,8.4-4.8,9.8-9.7c1-3.5,3.9-3.3,6.3-3.7
		c3.1-0.5,4,3,6.3,4.2c0.2,0.3,0.2,0.6,0.1,0.9c-4.1,3.3-1.6,7.4-1.6,11.3c0,2.5,0.7,3.1,2.6,3.8c5.9,2,12.7,0.1,15.2-3.5
		c3.3-4.8,5-10.3,11.4-12.2c0.6-0.2,0.2-3.1,0.5-4.7c0.2-1.4,0.6-3.5,2.2-3.5c1.8,0,3.2,1.3,3.5,3c0.5,3.5,2,5.8,5.6,6.6
		c1.1,0.2,2.2,1,2,2.4c-0.2,1.1-0.5,2.3-1.9,2.7c-0.9,0.3-1.9,0.6-2.9,0.7c-1.7,0.2-3.1,0.8-3,2.6c0.1,2,2,1.2,3.2,1.4
		c3.4,0.5,7.5-0.2,8.9,4.6c-3.7,0.8-8.3,0.3-6.9,6.4c0.4,1.4-1.5,1.5-2.6,1.5c-3.6-0.2-7.3-0.5-10.9-1c-4-0.5-7.8-0.9-11.8,0.3
		c-4,1.2-8.5,0.9-11.6-1.4c-8.2-5.8-17-3.5-25.5-2.8c-5,0.4-9.9,0.3-15.2,0.5c0.7-4.4,2.9-5.7,6.5-6
		C326.1,383.7,329.9,383.9,331.9,380.1z M352,416.8c-0.9,1.8-2.5,3.8-4.8,4c-2.4,0.2-4-1-3.8-3.8c0-0.4-0.8-1.3-1.3-1.4
		c-6.3-0.8-7.2-8.6-13-10.2c6.1-1.9,12.5-2.8,18.9-2.7c3.9,0.1,5.4,0.6,6.5,5.6C355.5,412.8,353.2,414.3,352,416.8z M352.6,488.7
		c0,1.9-1.9,1.1-3,1.5c-1.5,0-3.4,0-3.4-1.9c0.1-1.6,2-2.2,3.3-2.2C350.9,486.1,352.6,487,352.6,488.7z M316,358.5
		c3.7-0.2,6.3-2.6,8.7-3.6c1.9,0.4,4.2,0.5,3.8,1c-2.6,3.1,0.5,7.6-2.7,10.4c-1.8,1.6-11.8-0.3-12.3-2.5
		C313.2,361.7,315.1,358.5,316,358.5z M293.6,362.1c1.5-2.5,2.8-3.8,4.7-0.2c0.7,1.3,2.4,1.5,3.9,0.4c1.8-1.3,4.7-2.7,5.9-1.2
		c1.8,2.4-2.2,3-2.9,4.6c-2.3,5-5.8,5.1-10,3.3c-1.7-0.9-3.2-2-4.7-3.2C291.5,364.7,292.6,363.4,293.6,362.1z M290.7,376.5
		c4.8,2.8,10.7,3.4,14.7,7.8c1.1,1.1,3.4,1.8,2.5,3.8c-0.9,2-2.5,0-3.8,0.2c-3.2,0.5-6,0.3-8.3-2.6c-1.1-1.4-3.5-0.1-5.6-0.1
		c-1.7-0.6-4.6,1.9-5.6-2.2c-0.4-1.6-3-0.5-4.6-0.8c-1.4-0.3-2.7-0.8-2.7-2.4c0-1.6,1.1-2.3,2.7-2.1c1.6,0.2,3-0.5,4.4-1.6
		C286.3,375,288.1,375,290.7,376.5z M278.2,363.1c1.3-0.1,2.9,0.5,2.8,2.1c0,1.6-1.7,1.8-2.7,2.1c-1.7-0.2-3.2-0.8-3.1-2.1
		C275.3,363.9,276.9,363.1,278.2,363.1z M266.9,379.5c0.7,0.6,0.8,1.7,0.2,2.4c-0.2,0.2-0.4,0.4-0.7,0.5c-3,1.9-4.9,0.7-6.6-1.8
		C262.2,378.7,264.4,377.1,266.9,379.5z M273,419.4c-0.6,1.5-2.3,0.5-3.6,0.7c-6.8,1-13.6,2.6-20.6,1.9c-3.6-0.3-6.3-1.4-8.3-5
		c2.8-0.5,5.3-0.7,7.7-1.3c3.4-0.9,7-1.4,8-6c0.5-2.5,7.1-4.1,9.7-3c0.4,0.2,0.8,0.4,1.2,0.7c-3,5.2,3,5.7,4.5,8.5
		C272.1,417.1,273.5,418.1,273,419.4z M290.8,440.7c-0.8,1.1-2.4,1.4-3.5,0.5c-2-1.1-5.3-0.6-5.9-3.4c-0.3-1.4,2-1.7,3.5-2
		c2.9,0,4,2.5,5.8,4C290.8,440.1,290.9,440.4,290.8,440.7z M336.9,450.8c-4.5-4.3-9.9-5.6-15.8-6.1c-1.8-0.1-6.1,1.4-4.2-3.7
		c0.4-1.1-1.2-1.4-2.1-1.7c-1.8-0.4-3.4-1.2-4.7-2.5c2.7-2.4,5.3-3.3,8.8-2.3c2.1,0.6,4.6,0,6.9-0.2c3-0.2,3.3-2.3,1.9-4.2
		c-3-4.1-6.7-7.5-12.3-6.5c-5.3,0.8-10.7,0.1-15.5-2.2c-3.4-1.5-7.4-1.8-11.2-2.2c-4-0.5-7.8-1.7-11.3-3.7c-1.8-1-4.5-1.3-3.5-4.8
		c0.9-3.2,2.8-4.5,5.6-4.6c3.3-0.1,6.6,0,10,0.3c5.8,0.5,11.4,1.4,16.4-3.3c3-2.8,13.4,1,14.1,5.3c1.4,7.6,7.3,10.8,12.6,14.5
		c4.4,3.1,8.5,5.7,6.8,12.2c-0.7,2.8,1.3,5.3,2.8,7.8c1.2,2,2.3,4.1,0.8,6.5C341.4,452.1,339.3,453.1,336.9,450.8z M321.1,498.4
		c4.5,0,8.9-1.8,12.1-5c1.4-1.3,2.9-3.4,5.5-1.5c2.9,2.2,1.5,5,0,6.3c-5.3,4.4-9.8,11.3-18.3,9.2c-4.6-1.1-9.2-2.8-12-8.4
		C313.2,498.7,317.2,498.4,321.1,498.4z M295.6,498.5c2.4,0.7,5.6,0.8,6.3,3.8c0.6,2.2-1.6,1.4-2.8,1.7c-2.4-0.6-5.4-0.7-6-4
		C292.8,498.4,294.8,498.3,295.6,498.5z M258.4,491.8c1.9-0.2,3.3-0.1,3.1,2.1c-0.2,2.6-2.2,2.5-4,2.5s-3.4-0.6-3.3-2.7
		C254.2,490.1,257.3,492.9,258.4,491.8z M128.7,584.1c0,2-0.4,3.1-2.7,3c-6.8-0.1-13.7-0.2-20.5,0c-2.7,0.1-2.9-1.2-2.9-3.4
		c0.1-4.6,0-9.3,0-14s0.1-9.3,0-14c0-2.3,0.2-3.5,3-2.5c6.6,2.2,13.4,4,20.2,5.2c1.9,0.4,2.9,0.9,2.9,3.1
		C128.5,569.1,128.6,576.7,128.7,584.1z M161.3,583.9c0,2.2-0.3,3.3-2.9,3.2c-6.8-0.2-13.6-0.2-20.4,0c-2.6,0.1-3-1-2.9-3.2
		c0.1-3.5,0-7,0-10.5h0.4v-12.9c4.2,0.2,8.5,0.4,12.7,0.5c3.3,0.1,6.7,0.5,9.9,0.2c2.9-0.3,3.2,0.9,3.2,3.3
		C161.2,571,161.2,577.5,161.3,583.9z M190.6,587.2c-6.5-0.1-13-0.1-19.5,0c-2.6,0.1-3.5-0.6-3.4-3.3c0.2-6.7,0.2-13.3,0-20
		c-0.1-2.8,1.2-3.4,3.4-3.6c7.5-0.7,14.8-2.4,22.7-4.4c0.1,9.7,0,19,0.1,28.3C193.9,586.8,192.8,587.2,190.6,587.2z M303.5,592.3
		c-13.4-1.7-26.9-0.1-40.4-0.3c-15.2-0.2-30.4,2-44.9,6.3c-0.1-1-0.3-1.7-0.3-2.3c-0.3-8.3-0.3-8.5-8.3-8.8c-2.5-0.1-3.1-0.9-3-3.2
		c0.1-9.8,0.1-19.7,0-29.5c0-2.1,0.5-3.3,2.6-4.2c12.9-5.3,25.1-12.2,36.2-20.7c0.6-0.5,1.5-1.2,2.2-1.1c6.8,0.5,11.8-3.7,17.5-6.3
		c3.8-1.8,7.6-3.3,9.8-7.2c1.1-1.5,2.7-2.6,4.6-2.8c8.4-1.6,16.7-2.7,24.9,1.2c8.6,4.1,17.2,5.3,26.2,0.5c5.6-3,12.2-3.1,18.5-3.5
		c7.2-0.5,12.7,6.3,11.4,13.4c-1.6,9.1-0.2,18.4,4,26.7c6.9,13.9,16.1,26.3,24.1,39.5c1.8,3.1,3.6,6.2,6,10.4
		C363.6,596.1,333.4,596.1,303.5,592.3z"/>
</g>
</svg>
