<?xml version="1.0" standalone="no"?>
<!DOCTYPE svg PUBLIC "-//W3C//DTD SVG 20010904//EN"
 "http://www.w3.org/TR/2001/REC-SVG-20010904/DTD/svg10.dtd">
<svg version="1.0" xmlns="http://www.w3.org/2000/svg"
 width="512.000000pt" height="512.000000pt" viewBox="0 0 512.000000 512.000000"
 preserveAspectRatio="xMidYMid meet">
<metadata>
Created by potrace 1.14, written by Peter Selinger 2001-2017
</metadata>
<g transform="translate(0.000000,512.000000) scale(0.100000,-0.100000)"
fill="#000000" stroke="none">
<path d="M1804 3402 c-23 -81 -63 -205 -89 -277 -49 -136 -143 -345 -155 -345
-4 0 -56 27 -115 60 -59 33 -111 60 -116 60 -5 0 -21 -18 -35 -40 -15 -22 -28
-40 -30 -40 -2 0 -4 24 -4 53 l0 54 165 6 c91 4 170 9 175 12 6 4 10 51 10
106 l0 99 -37 0 c-65 0 -69 11 -26 66 60 77 106 153 100 167 -3 7 -43 36 -90
64 l-86 51 -33 -51 c-18 -29 -54 -80 -80 -113 -27 -34 -48 -66 -48 -72 0 -6
27 -30 61 -53 69 -49 65 -57 -28 -58 -88 -1 -83 -13 -83 200 l0 189 -123 0
-124 0 -6 -122 c-4 -66 -7 -151 -7 -189 0 -52 -4 -68 -16 -73 -20 -8 -102 -8
-131 0 -20 6 -19 8 20 38 23 18 50 35 60 39 9 3 20 13 23 21 5 13 -53 102
-128 198 -34 43 -26 45 -141 -29 l-69 -44 18 -27 c39 -59 114 -186 114 -194 0
-4 -34 -8 -75 -8 l-75 0 0 -100 c0 -117 -14 -106 155 -118 l110 -8 -94 -61
c-52 -34 -123 -75 -158 -90 -34 -15 -63 -32 -63 -36 0 -8 48 -136 81 -215 l9
-23 47 27 c72 41 169 111 245 176 l68 59 0 -75 0 -75 -52 -3 -53 -3 -25 -72
-24 -73 -133 0 -133 0 0 -105 0 -105 26 0 c33 0 114 -20 114 -29 0 -3 -20 -41
-45 -83 -25 -43 -45 -79 -45 -82 0 -3 55 -33 123 -67 67 -34 124 -63 125 -64
8 -7 -139 -47 -228 -62 -52 -9 -96 -17 -98 -18 -1 -1 12 -33 29 -71 17 -38 40
-93 51 -122 l20 -53 46 6 c120 17 313 87 423 155 27 16 51 30 53 30 2 0 61
-28 131 -61 139 -68 132 -68 175 7 l28 46 57 -68 c31 -38 69 -86 83 -106 15
-21 32 -38 37 -38 33 0 244 159 335 253 19 20 38 37 42 37 4 0 29 -23 55 -52
57 -61 179 -166 221 -190 l30 -18 41 70 c23 39 62 99 86 134 l43 64 -80 53
c-44 29 -114 85 -155 125 l-74 72 24 49 c87 171 154 422 188 703 12 100 23
120 66 120 23 0 23 1 23 119 l0 119 -239 3 c-132 2 -242 7 -245 10 -4 3 0 28
9 55 43 141 55 188 55 208 0 21 -6 23 -107 34 -174 19 -152 35 -199 -136z
m396 -463 c0 -37 -16 -148 -36 -247 -15 -76 -80 -281 -93 -295 -22 -22 -98
242 -131 454 -19 118 -18 119 135 119 l125 0 0 -31z m-804 -330 c66 -39 122
-73 125 -75 4 -2 17 12 30 31 13 19 29 35 34 35 6 0 30 -32 55 -70 25 -38 48
-69 52 -70 3 0 18 20 32 45 29 48 46 58 46 24 0 -26 94 -308 120 -358 l19 -38
-72 -72 c-76 -75 -186 -160 -250 -193 -38 -19 -38 -19 -28 1 18 33 14 38 -61
67 -120 45 -116 33 -47 126 34 45 74 108 90 140 26 52 29 67 29 158 l0 100
-225 2 -225 3 19 35 c16 31 24 36 67 40 l49 5 3 68 c2 37 7 67 11 67 5 0 62
-32 127 -71z m-126 -387 c0 -14 -54 -84 -91 -118 l-34 -32 -90 35 c-49 19 -93
37 -97 41 -4 4 4 24 17 45 l26 37 134 0 c74 0 135 -4 135 -8z"/>
<path d="M3758 3363 l-3 -168 -217 -3 -218 -2 0 -470 0 -470 125 0 125 0 0 25
c0 25 1 25 89 25 72 0 90 -3 95 -16 3 -9 6 -85 6 -170 0 -115 -3 -156 -12
-159 -7 -3 -116 -13 -243 -22 l-230 -18 -4 -25 c-1 -14 2 -59 9 -100 6 -41 13
-90 16 -108 5 -31 7 -32 42 -27 36 4 128 14 330 35 118 13 339 37 447 50 44 6
101 10 127 10 l46 0 28 -82 c14 -46 28 -84 29 -86 4 -5 219 60 229 68 14 13
-175 554 -203 583 -6 6 -199 -45 -222 -59 -4 -2 8 -43 26 -91 l32 -88 -41 -7
c-23 -3 -62 -7 -88 -7 l-48 -1 0 159 0 158 61 7 c34 3 131 6 215 6 l154 0 0
440 0 440 -215 0 -215 0 0 170 0 170 -135 0 -135 0 -2 -167z m-7 -450 c5 -5 8
-83 7 -174 l-3 -164 -92 -3 -93 -3 0 174 c0 95 3 177 8 181 9 11 162 0 173
-11z m457 -166 l2 -177 -90 0 -90 0 0 174 0 175 43 4 c23 2 62 3 87 3 l45 -1
3 -178z"/>
<path d="M2730 3469 c-36 -28 -78 -62 -93 -75 l-28 -24 42 -57 c62 -83 129
-194 129 -213 0 -9 -34 -43 -77 -75 -42 -33 -85 -67 -97 -77 -21 -16 -21 -17
49 -118 38 -56 75 -104 81 -107 7 -2 45 19 86 47 l73 51 17 -53 c9 -29 17 -62
17 -73 1 -38 -133 -197 -274 -322 l-69 -63 58 -112 c33 -62 60 -115 62 -116 8
-11 115 86 218 197 26 29 51 49 55 46 9 -10 14 -268 6 -332 -5 -40 -14 -63
-35 -86 l-29 -32 -103 1 c-57 0 -116 4 -131 8 -26 6 -27 5 -22 -26 5 -35 23
-151 31 -207 l5 -34 152 6 c172 7 224 20 284 72 82 70 112 213 112 525 1 288
-32 512 -105 734 l-26 78 54 57 c82 84 114 121 161 180 l41 54 -36 31 c-20 17
-63 54 -95 83 l-60 52 -92 -99 c-51 -55 -96 -100 -101 -100 -4 0 -29 28 -54
63 -25 34 -67 86 -93 115 l-48 53 -65 -52z"/>
</g>
</svg>
