<svg id="Capa_1" data-name="Capa 1" xmlns="http://www.w3.org/2000/svg" xmlns:xlink="http://www.w3.org/1999/xlink" viewBox="0 0 1289.72 1834.97"><defs><style>.cls-1{fill:none;}.cls-2{clip-path:url(#clip-path);}.cls-3{fill:#163043;}.cls-4{fill:#e2708f;}.cls-5{fill:#25749b;}</style><clipPath id="clip-path" transform="translate(68.47 -85.03)"><rect class="cls-1" width="1080" height="1920"/></clipPath></defs><g class="cls-2"><path class="cls-3" d="M58.47,1486.48s-28.86-194.37-20.85-226.76S68.39,1173.55,60,1114.34s94.36-220.78,159.6-268.73S344.74,648,397.17,628.85s161.27-32.61,201.14-55.63L698,515.67,691.63,508S620.76,544.92,610,552.84,562.56,571,553.91,574.18,483.24,594.32,462.4,603s-15.29-18.22,12.74-26.85,66.09-23,80.58-39.33,29.9-33.57,29.9-33.57L574.75,503s-10,16.56-18.12,22.31-35.34,27.34-48.47,30.22S462.4,570,452.43,575.62s-15.4,18.7-24,25.41-49.38,22.54-66.15,36S272.72,754.43,257.19,772.23s-55.86,66.18-69.32,74.33S59.56,955.9,39.83,968.37c0,0,81.59-295.89,163.11-415.53S400.67,395.72,510.06,410.17,729,284.7,762.21,239.54s437.34-142,437.34-142V85s-192.3,51.67-232.21,54.73-181.25,56.14-226,99.78-125.28,122.68-158.81,138-141.34,16.31-158.1,15.83c0,0,67.5-62.82,105.55-78.17s106-57.55,109.63-63.3,0-17.27,0-17.27-29.34,17.64-42.54,27.44S493,321.58,458.94,342.38s-118.31,69.71-140,78.34S175.73,529.1,161.24,553.08,40.33,742,34.39,749.69,62.48,504.16,50.7,433.19,16.44,271.41,66.1,226.3s193.89-64.54,251,16S544.49,157,584.35,163.68s48.93,13.43,48.93,13.43L636,163.68s-34.51-23.47-67.54-11.74-112.62,57.39-148.1,64.49-86.07,8.78-116.88-26.78-108.77-52.82-172.62-38.44S16.73,178.91-42.39,254.74V1479.49Z" transform="translate(68.47 -85.03)"/><path class="cls-4" d="M751.63,443.16a48.17,48.17,0,0,0-34.14,16.64A54,54,0,0,0,704.26,497a48.2,48.2,0,0,0,34.15-16.64A54,54,0,0,0,751.63,443.16Z" transform="translate(68.47 -85.03)"/><path class="cls-4" d="M752.48,500a32.09,32.09,0,0,0-25-5.69,33.47,33.47,0,0,0-21.56,14.56,32.09,32.09,0,0,0,25,5.69A33.42,33.42,0,0,0,752.48,500Z" transform="translate(68.47 -85.03)"/><path class="cls-4" d="M691.57,443.49a37.1,37.1,0,0,0,2.3,50,37.1,37.1,0,0,0-2.3-50Z" transform="translate(68.47 -85.03)"/><path class="cls-4" d="M866.3,281.17A54.55,54.55,0,0,0,857,242.62a48.88,48.88,0,0,0-32.21-20.51,54.51,54.51,0,0,0,9.28,38.55A48.91,48.91,0,0,0,866.3,281.17Z" transform="translate(68.47 -85.03)"/><path class="cls-4" d="M813.31,271.76a37.11,37.11,0,0,0,.18-50.08,37.11,37.11,0,0,0-.18,50.08Z" transform="translate(68.47 -85.03)"/><path class="cls-4" d="M876.86,218.58a33.22,33.22,0,0,0-22.16-13.53A32.2,32.2,0,0,0,830,211.93a33.24,33.24,0,0,0,22.15,13.52A32.23,32.23,0,0,0,876.86,218.58Z" transform="translate(68.47 -85.03)"/><path class="cls-4" d="M326.47,566.23a53.49,53.49,0,0,0-16.29-35.85A47.69,47.69,0,0,0,274.78,517a53.43,53.43,0,0,0,16.29,35.85A47.66,47.66,0,0,0,326.47,566.23Z" transform="translate(68.47 -85.03)"/><path class="cls-4" d="M272.77,568.09a37.23,37.23,0,0,0,5-26.56A35.69,35.69,0,0,0,263.6,519a37.22,37.22,0,0,0-5,26.56A35.65,35.65,0,0,0,272.77,568.09Z" transform="translate(68.47 -85.03)"/><path class="cls-4" d="M325.14,502.66A32.41,32.41,0,0,0,300.9,494a32.92,32.92,0,0,0-23,11.91,32.39,32.39,0,0,0,24.25,8.62A32.88,32.88,0,0,0,325.14,502.66Z" transform="translate(68.47 -85.03)"/><path class="cls-4" d="M181.79,276.7A54.23,54.23,0,0,0,193.72,239a53.37,53.37,0,0,0-16.59-35.7A54.15,54.15,0,0,0,165.21,241,53.43,53.43,0,0,0,181.79,276.7Z" transform="translate(68.47 -85.03)"/><path class="cls-4" d="M142.06,238.41a33.63,33.63,0,0,0,21-15.39,37.26,37.26,0,0,0,4.73-26.61,33.6,33.6,0,0,0-21,15.4A37.23,37.23,0,0,0,142.06,238.41Z" transform="translate(68.47 -85.03)"/><path class="cls-4" d="M222.7,230.13A36.28,36.28,0,0,0,211,206.06a32.35,32.35,0,0,0-24.32-8.4,36.3,36.3,0,0,0,11.71,24.07A32.35,32.35,0,0,0,222.7,230.13Z" transform="translate(68.47 -85.03)"/><path class="cls-4" d="M385.93,167.94a29,29,0,0,0-11,18.57,30.16,30.16,0,0,0,4.52,21.41,29,29,0,0,0,11-18.58A30.07,30.07,0,0,0,385.93,167.94Z" transform="translate(68.47 -85.03)"/><path class="cls-4" d="M402.53,193.9a17.94,17.94,0,0,0-13.16,5.36,20.11,20.11,0,0,0-5.79,13.6,17.9,17.9,0,0,0,13.15-5.36A20.09,20.09,0,0,0,402.53,193.9Z" transform="translate(68.47 -85.03)"/><path class="cls-4" d="M358.32,187.27a20.5,20.5,0,0,0,3.32,14.5,18.44,18.44,0,0,0,12,7.84,20.45,20.45,0,0,0-3.33-14.5A18.32,18.32,0,0,0,358.32,187.27Z" transform="translate(68.47 -85.03)"/><path class="cls-4" d="M592.57,422.69a52.61,52.61,0,0,0-20,33.67,54.64,54.64,0,0,0,8.13,38.85,52.69,52.69,0,0,0,20-33.67A54.62,54.62,0,0,0,592.57,422.69Z" transform="translate(68.47 -85.03)"/><path class="cls-4" d="M622.61,469.85a32.5,32.5,0,0,0-23.89,9.68,36.5,36.5,0,0,0-10.55,24.66,32.56,32.56,0,0,0,23.88-9.68A36.48,36.48,0,0,0,622.61,469.85Z" transform="translate(68.47 -85.03)"/><path class="cls-4" d="M542.41,457.68a37.18,37.18,0,0,0,6,26.32,33.41,33.41,0,0,0,21.74,14.26,37.15,37.15,0,0,0-6-26.33A33.33,33.33,0,0,0,542.41,457.68Z" transform="translate(68.47 -85.03)"/><path class="cls-4" d="M677.48,147.86a23.34,23.34,0,0,0-18.7.91,25.51,25.51,0,0,0-12.69,14.57,23.3,23.3,0,0,0,18.7-.91A25.51,25.51,0,0,0,677.48,147.86Z" transform="translate(68.47 -85.03)"/><path class="cls-4" d="M667.81,174.28a16.73,16.73,0,0,0-10.53-7.58,15.91,15.91,0,0,0-12.53,2.44,16.74,16.74,0,0,0,10.53,7.59A16,16,0,0,0,667.81,174.28Z" transform="translate(68.47 -85.03)"/><path class="cls-4" d="M649.7,136.11a17.34,17.34,0,0,0-8.46,10.08,18.63,18.63,0,0,0,.67,13.46,17.39,17.39,0,0,0,8.47-10.08A18.68,18.68,0,0,0,649.7,136.11Z" transform="translate(68.47 -85.03)"/><path class="cls-4" d="M692.94,173.09a49.3,49.3,0,0,0-31.22,22.16,54.72,54.72,0,0,0-7.47,39,49.28,49.28,0,0,0,31.21-22.16A54.72,54.72,0,0,0,692.94,173.09Z" transform="translate(68.47 -85.03)"/><path class="cls-4" d="M702.3,229.09a31.87,31.87,0,0,0-25.54-1.41,34.29,34.29,0,0,0-19.1,18,31.86,31.86,0,0,0,25.54,1.42A34.34,34.34,0,0,0,702.3,229.09Z" transform="translate(68.47 -85.03)"/><path class="cls-4" d="M633.68,183.5a37.25,37.25,0,0,0-4.62,26.63,35.69,35.69,0,0,0,14.4,22.38,37.25,37.25,0,0,0,4.62-26.63A35.62,35.62,0,0,0,633.68,183.5Z" transform="translate(68.47 -85.03)"/><path class="cls-4" d="M737.22,573.63a41.58,41.58,0,0,0-19.77-24.38,37.79,37.79,0,0,0-30.24-2.61A41.58,41.58,0,0,0,707,571,37.85,37.85,0,0,0,737.22,573.63Z" transform="translate(68.47 -85.03)"/><path class="cls-4" d="M695.7,586.92a30.23,30.23,0,0,0-1.37-21.81,27.68,27.68,0,0,0-15.46-14.49,30.22,30.22,0,0,0,1.37,21.81A27.61,27.61,0,0,0,695.7,586.92Z" transform="translate(68.47 -85.03)"/><path class="cls-4" d="M723.67,524.33A25.75,25.75,0,0,0,703.06,523a27.61,27.61,0,0,0-15.57,14.36,25.75,25.75,0,0,0,20.61,1.37A27.67,27.67,0,0,0,723.67,524.33Z" transform="translate(68.47 -85.03)"/><path class="cls-4" d="M615.61,544.53a27,27,0,0,0-12.16-16.27A24.46,24.46,0,0,0,584,525.74,27,27,0,0,0,596.16,542,24.48,24.48,0,0,0,615.61,544.53Z" transform="translate(68.47 -85.03)"/><path class="cls-4" d="M588.49,552a19.48,19.48,0,0,0-.35-14.12,17.93,17.93,0,0,0-9.62-9.77,19.56,19.56,0,0,0,.35,14.11A18,18,0,0,0,588.49,552Z" transform="translate(68.47 -85.03)"/><path class="cls-4" d="M608.07,512.34a16.65,16.65,0,0,0-13.27-1.45,17.76,17.76,0,0,0-10.4,8.84,16.65,16.65,0,0,0,13.27,1.46A17.81,17.81,0,0,0,608.07,512.34Z" transform="translate(68.47 -85.03)"/><path class="cls-4" d="M464.45,516.5a26.85,26.85,0,0,0,1.77,19.37,24.49,24.49,0,0,0,14.12,12.45A26.9,26.9,0,0,0,478.57,529,24.55,24.55,0,0,0,464.45,516.5Z" transform="translate(68.47 -85.03)"/><path class="cls-4" d="M489.39,525.23a17.53,17.53,0,0,0-6.5,11.31,18.18,18.18,0,0,0,2.89,12.88,17.63,17.63,0,0,0,6.5-11.31A18.15,18.15,0,0,0,489.39,525.23Z" transform="translate(68.47 -85.03)"/><path class="cls-4" d="M454.94,545.92a16.61,16.61,0,0,0,9.75,8.28,15.61,15.61,0,0,0,12.44-1.37,16.62,16.62,0,0,0-9.76-8.28A15.55,15.55,0,0,0,454.94,545.92Z" transform="translate(68.47 -85.03)"/><path class="cls-4" d="M886.23,451.89A54.5,54.5,0,0,0,877,413.34a48.88,48.88,0,0,0-32.21-20.51A54.51,54.51,0,0,0,854,431.38,48.91,48.91,0,0,0,886.23,451.89Z" transform="translate(68.47 -85.03)"/><path class="cls-4" d="M992.16,1040.81a37.24,37.24,0,0,0,24.73-15.25,41.52,41.52,0,0,0,7.45-29.26,37.24,37.24,0,0,0-24.73,15.25A41.52,41.52,0,0,0,992.16,1040.81Z" transform="translate(68.47 -85.03)"/><path class="cls-4" d="M193.39,1320.39a40.9,40.9,0,0,0-11.46-27.77,36.48,36.48,0,0,0-26.59-11.22,40.9,40.9,0,0,0,11.46,27.77A36.46,36.46,0,0,0,193.39,1320.39Z" transform="translate(68.47 -85.03)"/><path class="cls-4" d="M261.41,1221c33-1.93,65.25-17,89.18-45s35-63.43,33.55-98.35c-33,1.93-65.26,17-89.18,45S260,1186.1,261.41,1221Z" transform="translate(68.47 -85.03)"/><path class="cls-5" d="M-56.18,1434.85s209.87,49.89,312.43,169.89,367.24,118.9,471.31,145.38S1221.24,1807,1221.24,1807v113H-68.47Z" transform="translate(68.47 -85.03)"/></g></svg>