<?xml version="1.0" standalone="no"?>
<!DOCTYPE svg PUBLIC "-//W3C//DTD SVG 20010904//EN"
 "http://www.w3.org/TR/2001/REC-SVG-20010904/DTD/svg10.dtd">
<svg version="1.0" xmlns="http://www.w3.org/2000/svg"
 width="61.000000pt" height="56.000000pt" viewBox="0 0 61.000000 56.000000"
 preserveAspectRatio="xMidYMid meet">

<g transform="translate(0.000000,56.000000) scale(0.100000,-0.100000)"
fill="#000000" stroke="none">
<path d="M408 504 c-42 -24 -80 -49 -84 -55 -4 -7 -24 6 -52 33 -25 23 -42 36
-39 27 3 -10 9 -48 12 -87 l7 -70 -113 28 c-82 20 -116 24 -121 16 -18 -26 -5
-33 70 -39 42 -3 95 -11 116 -17 l39 -12 -74 -74 c-75 -76 -73 -82 11 -39 16
8 33 15 38 15 5 0 7 -47 4 -105 -3 -58 -2 -105 2 -105 3 0 27 42 52 93 25 50
48 94 50 96 2 2 23 -14 48 -36 43 -38 49 -40 128 -46 46 -3 84 -5 85 -4 3 3
-77 159 -88 173 -5 6 -30 17 -54 24 -25 7 -45 14 -45 16 0 1 9 18 20 36 21 36
73 169 68 174 -2 1 -38 -17 -80 -42z"/>
</g>
</svg>
