<svg id="Capa_1" data-name="Capa 1" xmlns="http://www.w3.org/2000/svg" viewBox="0 0 57.63 52.6"><defs><style>.cls-1{fill:#882528;}</style></defs><path class="cls-1" d="M40.8,5.6c-4.2,2.4-8,4.9-8.4,5.5s-2.4-.6-5.2-3.3C24.7,5.5,23,4.2,23.3,5.1a61.06,61.06,0,0,1,1.2,8.7l.7,7L13.9,18C5.7,16,2.3,15.6,1.8,16.4c-1.8,2.6-.5,3.3,7,3.9A75,75,0,0,1,20.4,22l3.9,1.2-7.4,7.4c-7.5,7.6-7.3,8.2,1.1,3.9A15.47,15.47,0,0,1,21.8,33c.5,0,.7,4.7.4,10.5S22,54,22.4,54s2.7-4.2,5.2-9.3,4.8-9.4,5-9.6,2.3,1.4,4.8,3.6c4.3,3.8,4.9,4,12.8,4.6,4.6.3,8.4.5,8.5.4.3-.3-7.7-15.9-8.8-17.3-.5-.6-3-1.7-5.4-2.4S40,22.6,40,22.4a36,36,0,0,1,2-3.6c2.1-3.6,7.3-16.9,6.8-17.4C48.6,1.3,45,3.1,40.8,5.6Z" transform="translate(-1.08 -1.4)"/></svg>